<svg width="496" height="192" viewBox="0 0 496 192" fill="none" xmlns="http://www.w3.org/2000/svg">
<path d="M304.923 1.14706C294.11 3.85035 283.816 12.0642 274.979 25.0608C272.483 28.5958 268.324 34.5223 265.621 38.2653C251.793 57.1883 248.258 62.283 248.258 63.1147C248.258 63.6346 247.53 64.2584 246.698 64.6743C243.787 65.7141 245.034 69.1452 249.089 71.6405C256.055 75.9034 270.092 91.8112 270.092 95.4502C270.092 95.8661 270.716 97.6337 271.547 99.2972C273.419 103.248 275.394 108.863 276.018 112.398C276.33 113.957 276.954 115.413 277.37 115.725C277.786 115.933 279.969 113.541 282.153 110.422C284.336 107.199 289.639 100.025 293.798 94.3065C297.853 88.588 301.284 83.7013 301.284 83.3894C301.284 83.0775 303.259 80.1663 305.755 76.9431C308.25 73.7199 310.537 70.1849 310.953 69.1452C311.681 67.2736 316.88 66.5458 316.88 68.4173C316.88 68.9372 319.687 73.3041 323.118 77.9828C334.035 93.1628 350.983 116.973 355.35 123.523C356.181 124.771 359.093 128.825 361.9 132.464C364.603 136.104 366.787 139.327 366.787 139.535C366.787 139.847 370.218 144.837 374.377 150.452C386.542 167.191 390.908 173.326 396.211 181.124C399.018 185.179 402.242 189.234 403.385 190.169C405.153 191.521 410.871 191.729 449.341 191.625C473.463 191.625 493.738 191.209 494.466 190.689C496.233 189.649 496.337 77.7749 494.466 75.9034C493.53 74.9676 485.94 74.6557 466.497 74.6557C443.103 74.6557 439.672 74.8636 439.152 76.3193C438.84 77.255 438.528 92.2271 438.528 109.591C438.528 131.321 438.216 141.198 437.384 141.198C436.137 141.198 433.225 138.495 431.77 135.896C430.21 133.088 423.036 122.691 418.045 116.037C415.55 112.814 413.575 109.902 413.575 109.591C413.575 109.279 412.847 108.135 412.015 107.095C408.792 103.56 397.979 88.1721 397.979 87.2364C397.979 86.7165 397.251 86.0927 396.419 85.6768C395.587 85.3649 394.859 84.6371 394.859 84.0132C394.859 83.3894 392.572 79.7504 389.661 75.9034C386.853 72.0564 383.526 67.4816 382.383 65.818C374.169 54.0691 369.178 47.103 363.979 39.9288C360.652 35.3541 357.741 31.0912 357.429 30.3634C355.038 24.333 336.219 4.99405 332.684 4.99405C332.268 4.99405 331.228 4.37021 330.604 3.74637C328.941 2.08281 318.751 -0.100613 313.241 0.00335961C310.953 0.00335961 307.21 0.523223 304.923 1.14706Z" fill="url(#paint0_linear_535_11)"/>
<path d="M68.3738 4.05503C65.7745 4.47092 61.4076 4.88681 58.4964 4.99079C55.6891 4.99079 52.154 5.7186 50.6984 6.55038C49.2428 7.38216 47.0593 8.006 45.8117 8.10997C44.564 8.10997 41.9647 8.73381 40.0931 9.56559C38.2216 10.3974 35.9342 11.3331 35.1024 11.645C34.2706 12.0609 32.1912 13.2046 30.4236 14.3483C28.7601 15.492 26.5766 16.7397 25.7448 17.0516C20.4422 19.339 8.06939 35.5588 8.06939 40.2375C8.06939 40.8614 7.34158 42.5249 6.40582 43.8766C5.15814 45.956 4.9502 49.1792 5.15814 61.344C5.57404 75.0684 6.40582 80.0591 9.2131 85.0498C9.73296 85.8816 10.5647 87.6491 11.1886 89.0007C13.372 94.0954 30.3197 107.924 34.3746 107.924C35.3104 107.924 37.2859 108.548 38.9494 109.379C46.8514 113.33 49.9706 113.538 118.281 114.058C184.2 114.682 185.448 114.682 190.126 116.969C198.652 120.92 200.524 126.639 195.741 135.061C194.285 137.556 192.83 140.363 192.414 141.195C191.582 142.963 183.16 154.712 179.209 159.494C177.754 161.366 176.506 163.133 176.506 163.549C176.506 163.861 174.53 166.876 172.035 170.099C169.54 173.323 167.252 176.858 166.836 177.793C166.525 178.833 165.693 179.665 165.069 179.665C164.549 179.665 164.029 180.185 164.029 180.809C164.029 181.432 162.885 183.408 161.43 185.072C158.727 188.295 158.311 191.726 160.702 191.518C161.326 191.414 208.946 191.31 266.443 191.206C355.236 191.102 370.936 190.894 370.936 189.646C370.936 188.191 369.272 185.695 358.355 169.995C355.236 165.525 352.325 161.054 351.701 160.118C351.181 159.182 350.037 157.935 349.413 157.519C348.686 157.103 348.062 156.167 348.062 155.647C348.062 153.984 340.888 144.938 338.912 144.106C337.976 143.69 318.741 143.378 296.387 143.482C252.406 143.586 251.575 143.482 253.55 138.492C255.006 134.645 254.694 125.599 252.926 119.777C252.095 116.969 251.367 113.434 251.367 111.979C251.367 110.419 250.639 108.652 249.807 107.924C248.975 107.196 248.248 105.844 248.248 104.909C248.248 103.245 239.41 93.2636 236.706 92.016C235.875 91.6001 233.899 90.3524 232.132 89.2087C230.468 88.065 228.285 86.9213 227.453 86.5054C226.621 86.1935 224.646 85.2577 223.086 84.4259C221.63 83.5942 219.551 82.9703 218.407 82.9703C217.367 82.9703 214.456 82.1385 211.857 81.2028C207.698 79.6432 199.068 79.3313 140.115 78.7074C103.205 78.3955 71.3891 77.6677 69.4136 77.2518C64.7348 76.2121 61.9275 73.3009 60.5759 67.9983C59.1202 62.5917 60.7838 57.2891 64.7348 54.3778C67.4381 52.4024 69.5176 52.2984 139.284 51.7785L211.025 51.2587L213.105 48.6593C214.248 47.2037 216.328 44.6044 217.679 42.9408C220.071 40.0296 223.918 35.0389 229.324 27.5529C230.676 25.6814 232.548 23.29 233.483 22.1463C237.226 17.7794 244.816 7.48613 246.064 5.19873L247.312 2.91133L160.182 3.01531C112.251 3.11928 70.9732 3.53517 68.3738 4.05503Z" fill="url(#paint1_linear_535_11)"/>
<path d="M438.932 4.257C438.724 4.98481 438.62 15.798 438.724 28.3787L439.036 51.2527L465.965 51.5646C484.888 51.7725 493.31 51.4606 494.246 50.6288C495.389 49.6931 495.701 44.9103 495.701 27.8588C495.701 15.9019 495.389 5.50467 495.077 4.56892C494.557 3.1133 491.022 2.90536 467.005 2.90536C445.69 2.90536 439.348 3.21728 438.932 4.257Z" fill="url(#paint2_linear_535_11)"/>
<path d="M33.3339 146.097C31.6704 147.657 25.9518 154.831 20.5452 162.005C15.2426 169.179 9.00425 177.081 6.71685 179.681C2.34998 184.671 -0.769205 189.974 0.166552 190.806C0.374497 191.118 29.071 191.222 63.902 191.222L127.118 191.118L131.276 186.231C133.564 183.528 135.955 180.512 136.475 179.577C138.555 175.834 145.937 165.332 152.799 156.183C156.646 150.984 159.869 146.097 159.869 145.266C159.869 144.018 150.407 143.706 98.1091 143.498L36.3491 143.082L33.3339 146.097Z" fill="url(#paint3_linear_535_11)"/>
<defs>
<linearGradient id="paint0_linear_535_11" x1="370.468" y1="-0.000213623" x2="370.468" y2="191.648" gradientUnits="userSpaceOnUse">
<stop stop-color="#FF4F4F"/>
<stop offset="1" stop-color="#5600AD"/>
</linearGradient>
<linearGradient id="paint1_linear_535_11" x1="188.012" y1="2.91133" x2="188.012" y2="191.527" gradientUnits="userSpaceOnUse">
<stop stop-color="#FF4F4F"/>
<stop offset="1" stop-color="#5600AD"/>
</linearGradient>
<linearGradient id="paint2_linear_535_11" x1="467.192" y1="2.90536" x2="467.192" y2="51.627" gradientUnits="userSpaceOnUse">
<stop stop-color="#FF4F4F"/>
<stop offset="1" stop-color="#5600AD"/>
</linearGradient>
<linearGradient id="paint3_linear_535_11" x1="79.9345" y1="143.082" x2="79.9345" y2="191.222" gradientUnits="userSpaceOnUse">
<stop stop-color="#FF4F4F"/>
<stop offset="1" stop-color="#5600AD"/>
</linearGradient>
</defs>
</svg>
